<svg width="233" height="231" viewBox="0 0 233 231" fill="none" xmlns="http://www.w3.org/2000/svg">
<rect width="233" height="231" fill="#523B35"/>
<rect x="122" width="111" height="110" fill="#F7F7F7"/>
<rect y="121" width="111" height="110" fill="#F7F7F7"/>
<rect x="122" y="121" width="111" height="110" fill="#F7F7F7"/>
<rect width="111" height="110" fill="#F7F7F7"/>
<rect x="153" y="30" width="50" height="50" fill="#523B35"/>
<rect x="192" width="11" height="40" fill="#523B35"/>
<rect x="153" y="121" width="11" height="78" fill="#523B35"/>
<rect x="69" y="121" width="11" height="78" fill="#523B35"/>
<rect x="27" y="151" width="11" height="78" fill="#523B35"/>
<path d="M69 30H80V110H69V30Z" fill="#523B35"/>
<path d="M27 0H38V110H27V0Z" fill="#523B35"/>
<rect x="192" y="121" width="11" height="78" fill="#523B35"/>
<rect y="199" width="233" height="32" fill="#F6F6F6"/>
<rect x="80" y="55" width="31" height="110" fill="#F6F6F6"/>
<rect y="55" width="27" height="110" fill="#F6F6F6"/>
<rect x="164" y="41" width="28" height="28" fill="#F6F6F6"/>
</svg>
