<svg width="8" height="8" viewBox="0 0 8 8" fill="none" xmlns="http://www.w3.org/2000/svg">
<path fill-rule="evenodd" clip-rule="evenodd" d="M2.67856 2.20463C2.67856 1.76788 2.84413 1.34902 3.13883 1.04019C3.43353 0.73136 3.83322 0.557861 4.24999 0.557861C4.66676 0.557861 5.06646 0.73136 5.36116 1.04019C5.65586 1.34902 5.82142 1.76788 5.82142 2.20463C5.82142 2.64138 5.65586 3.06025 5.36116 3.36908C5.06646 3.6779 4.66676 3.8514 4.24999 3.8514C3.83322 3.8514 3.43353 3.6779 3.13883 3.36908C2.84413 3.06025 2.67856 2.64138 2.67856 2.20463ZM2.67856 4.67479C2.1576 4.67479 1.65798 4.89166 1.28961 5.2777C0.92123 5.66374 0.714279 6.18731 0.714279 6.73325C0.714279 7.06082 0.83845 7.37496 1.05947 7.60659C1.2805 7.83821 1.58027 7.96833 1.89285 7.96833H6.60714C6.91971 7.96833 7.21949 7.83821 7.44051 7.60659C7.66154 7.37496 7.78571 7.06082 7.78571 6.73325C7.78571 6.18731 7.57876 5.66374 7.21038 5.2777C6.84201 4.89166 6.34238 4.67479 5.82142 4.67479H2.67856Z" fill="#523B35"/>
</svg>
